<?xml version="1.0" standalone="no"?>
<!DOCTYPE svg PUBLIC "-//W3C//DTD SVG 20010904//EN"
 "http://www.w3.org/TR/2001/REC-SVG-20010904/DTD/svg10.dtd">
<svg version="1.0" xmlns="http://www.w3.org/2000/svg"
 width="1024.000000pt" height="1024.000000pt" viewBox="0 0 1024.000000 1024.000000"
 preserveAspectRatio="xMidYMid meet">
<metadata>
Created by potrace 1.14, written by Peter Selinger 2001-2017
</metadata>
<g transform="translate(0.000000,1024.000000) scale(0.100000,-0.100000)"
fill="#000000" stroke="none">
<path d="M4553 10215 c-17 -7 -40 -28 -50 -47 -16 -30 -18 -70 -21 -460 l-3
-427 -427 -3 c-474 -3 -472 -3 -509 -71 -17 -29 -18 -75 -18 -572 0 -602 -3
-572 68 -615 30 -19 53 -20 460 -20 l427 0 0 -480 0 -480 -1607 0 c-996 0
-1634 -4 -1676 -10 -142 -21 -249 -75 -357 -182 -77 -75 -128 -154 -162 -248
-20 -58 -23 -83 -23 -220 l0 -155 745 -2152 745 -2153 2976 0 2976 0 741 2144
c687 1989 742 2150 751 2238 9 93 2 209 -18 275 -48 161 -194 329 -349 401
-132 60 -3 56 -1809 59 l-1653 3 0 480 0 480 428 0 c406 0 429 1 459 20 71 43
68 13 68 615 0 497 -1 543 -18 572 -37 68 -35 68 -509 71 l-428 3 -1 417 c-1
458 -2 471 -59 510 l-33 22 -541 0 c-438 -1 -547 -3 -573 -15z"/>
<path d="M1486 1262 c-69 -23 -155 -109 -181 -182 -19 -51 -20 -81 -20 -435 0
-413 1 -421 57 -505 33 -50 80 -87 148 -116 44 -19 121 -19 3580 -22 2154 -1
3561 1 3603 7 122 17 206 76 256 181 l26 55 0 400 0 400 -27 56 c-34 67 -85
120 -147 151 l-46 23 -3600 2 c-3318 2 -3604 1 -3649 -15z"/>
</g>
</svg>
