<?xml version="1.0" standalone="no"?>
<!DOCTYPE svg PUBLIC "-//W3C//DTD SVG 20010904//EN"
 "http://www.w3.org/TR/2001/REC-SVG-20010904/DTD/svg10.dtd">
<svg version="1.0" xmlns="http://www.w3.org/2000/svg"
 width="1024.000000pt" height="1024.000000pt" viewBox="0 0 1024.000000 1024.000000"
 preserveAspectRatio="xMidYMid meet">
<metadata>
Created by potrace 1.14, written by Peter Selinger 2001-2017
</metadata>
<g transform="translate(0.000000,1024.000000) scale(0.100000,-0.100000)"
fill="#000000" stroke="none">
<path d="M4657 9458 c-26 -7 -45 -20 -58 -42 -18 -29 -19 -55 -19 -398 l0
-368 -365 0 c-313 0 -370 -2 -396 -16 -58 -29 -59 -40 -59 -526 0 -402 2 -446
18 -478 29 -60 31 -60 435 -60 l367 0 0 -410 0 -410 -1387 0 c-1473 -1 -1446
0 -1553 -47 -100 -45 -215 -154 -265 -253 -46 -91 -58 -153 -52 -284 l4 -121
631 -1820 630 -1820 2530 -3 c2154 -2 2531 0 2535 12 3 8 288 830 633 1827
l627 1814 5 104 c3 63 0 125 -8 160 -44 202 -215 374 -415 417 -48 11 -346 13
-1447 14 l-1388 0 0 410 0 410 368 0 c340 0 369 1 398 19 20 12 34 32 42 58
15 52 17 860 2 915 -6 20 -24 48 -41 62 l-31 26 -369 0 -369 0 0 369 0 369
-26 31 c-14 17 -42 35 -62 41 -49 13 -863 12 -915 -2z"/>
<path d="M2065 1851 c-92 -23 -165 -89 -190 -175 -22 -74 -22 -650 1 -725 18
-60 79 -129 141 -158 36 -17 177 -18 3088 -18 2581 0 3057 2 3098 14 56 16
127 79 154 138 16 34 18 72 18 388 0 314 -2 354 -18 388 -22 48 -86 112 -134
134 -36 17 -191 18 -3083 20 -1675 0 -3058 -2 -3075 -6z"/>
</g>
</svg>
